<svg xmlns="http://www.w3.org/2000/svg" xmlns:xlink="http://www.w3.org/1999/xlink" version="1.1" id="Layer_1" x="0px" y="0px" width="100px" height="100px" viewBox="0 0 100 100" enable-background="new 0 0 100 100" xml:space="preserve">
<g>
	<polygon points="45.833,67.696 45.833,68.693 46.298,68.41 46.298,67.568  "/>
	<polygon points="66.23,76.727 66.23,71.359 63.352,70.58 63.352,74.971  "/>
	<path d="M93.091,21.735v-1.354l-1.711,0.533v-4.717h-0.488v4.869L78.67,24.875v-8.677h-0.489v8.83l-6.464,2.014V16.197h-0.489   v10.996l-1.597,0.498l-0.006-3.074h-2.906v-8.419H66.23v8.419h-2.879v-8.419h-0.489v9.452h-1.575v-9.452h-0.488v9.452h-0.924   v-9.452h-0.489v9.452H58.68v-9.452H58.19v9.452h-0.706v-9.452h-1.724l-2.669,5.54h-0.007v0.015l-1.38,2.865h-4.542l-4.055-8.419   h-1.701v9.452H40.7v-9.452h-0.489v9.452h-0.706v-9.452h-0.489v9.452h-0.923v-9.452h-0.489v9.452h-1.575v-9.452H35.54v8.419h-2.879   v-8.419h-0.489v8.419h-3.124v2.77l-1.385-0.432V16.197h-0.489v10.605l-6.464-2.014v-8.591h-0.489v8.438L8,20.828v-4.63H7.511v4.478   l-1.603-0.5v1.377l1.603,0.442V36.3l-1.603,0.561v0.173l1.603-0.561v3.699l-1.603,0.78v0.181l1.603-0.78v3.006l-1.603,0.953v0.189   l1.603-0.953v2.925l-1.603,1.139v0.2l1.603-1.139v3.353l-1.603,1.356v0.214l1.603-1.357v4.196l-1.603,1.632v0.232l1.603-1.631   v3.675l-1.603,1.878v0.251l1.603-1.878v5.793l-1.603,2.277v0.283l1.603-2.277v5.389L5.908,72.69v0.313l1.603-2.632v6.588   l-0.736,1.404l-0.866,0.236v6.202h1.603v-6.638L8,78.031v6.771h0h11.424l0.824-0.503v-9.581l0.489-0.135v9.418l6.464-3.943v-7.254   l0.489-0.135v7.091l4.509-2.75v-5.572l-3.25,0.881l-0.003-0.011l-1.283,0.35V44.565l1.385-4.271v31.491l7.752-1.938V47.641h0.004   c-0.001-0.052-0.004-0.104-0.004-0.156c0-1.11,0.323-2.281,0.803-3.393v25.851l-0.243,0.066l0.008,0.028l-1.313,0.355v4.265   l1.575-0.961v-3.764l0.462-0.128v-26.73c0.288-0.545,0.603-1.065,0.923-1.544v28.026l-0.896,0.245v3.596l0.924-0.562v-3.292   l0.462-0.127V40.839c0.242-0.326,0.48-0.625,0.706-0.889v29.281l-0.679,0.186v3.12l0.706-0.431v-2.892l0.462-0.127V39.413   c0.283-0.291,0.526-0.504,0.706-0.622v30.114l-0.679,0.186v2.718l0.707-0.432v-2.49l0.462-0.127V38.774   c0.134,0.076,0.299,0.198,0.489,0.366v29.498l-0.462,0.126v2.315l0.489-0.298v-2.164l0.462-0.127V39.618   c0.156,0.165,0.32,0.35,0.489,0.551v28.202L42.9,68.497v1.985l0.489-0.298v-1.837l0.462-0.127V40.787   c0.163,0.217,0.327,0.446,0.489,0.688v26.628l-0.462,0.127v1.656l0.489-0.299v-1.509l0.462-0.128v-25.7   c0.17,0.287,0.334,0.585,0.489,0.892v24.694l-0.462,0.126v1.327l0.489-0.298V67.81l0.462-0.127V44.226   c0.323,0.812,0.56,1.659,0.652,2.503v20.665h0.003v1.113H46.45l0,0.001L21.834,84.803h55.227L52.443,68.508l0.001-0.001h-0.012   v-0.923v-0.19V45.448c0.167-0.581,0.392-1.159,0.652-1.718v24.033l-0.489-0.134v0.781l0.489,0.298v-0.925l0.489,0.135v1.088   l0.488,0.299v-1.252l0.489,0.135v1.415L55.04,69.9v-1.578l0.489,0.135v1.742l0.489,0.298v-1.906l0.488,0.135v2.069l0.489,0.299   V68.86l0.488,0.135v2.396l0.706,0.431v-2.633l0.489,0.135v2.797l0.706,0.431v-3.033l0.489,0.135v3.196l0.924,0.563v-3.506   l0.488,0.135v3.669l1.575,0.961v-4.225l-1.341-0.363l0.005-0.016l-0.239-0.065V44.659c0.326,0.924,0.532,1.885,0.532,2.827   c0,0.052-0.003,0.104-0.004,0.156h0.004l0.078,22.201l7.809,1.953l-0.054-31.261l1.575,4.858v27.326l-1.521-0.415v-0.001   l-2.988-0.81v5.532l4.509,2.75v-6.995l0.489,0.134v7.16l6.464,3.942v-9.322l0.489,0.135v9.486l0.801,0.488h11.341h0.08v-6.714   l-3.327-0.909L78.67,57.389v-3.644l12.222,23.3v1.003l0.488,0.133v6.622l0,0l1.671-0.041l0.04-6.072l-1.346-0.368l-0.365-0.694   v-6.624l1.711,2.81v-0.313l-1.711-2.81v-5.419l1.711,2.432v-0.283l-1.711-2.432V59.16l1.711,2.005v-0.251L91.38,58.91v-3.696   l1.711,1.742v-0.232l-1.711-1.742v-4.22l1.711,1.449v-0.214l-1.711-1.448v-3.371l1.711,1.215v-0.2l-1.711-1.216v-2.941l1.711,1.018   v-0.189l-1.711-1.018v-3.021l1.711,0.833v-0.181l-1.711-0.833v-3.717l1.711,0.599v-0.172l-1.711-0.599V22.207L93.091,21.735z    M7.511,78.163l-0.521,0.143l0.521-0.995V78.163z M20.222,74.691l-2.554,0.697l2.554-7.875V74.691z M20.222,66.985l-2.742,8.454   l-3.416,0.934l6.158-15.37V66.985z M20.222,60.565l-6.354,15.861l-2.67,0.729l9.024-20.08V60.565z M20.222,56.679l-9.228,20.533   L8,78.029v-1.65l12.222-23.301V56.679z M20.222,52.728L8,76.028v-6.459l12.222-20.07V52.728z M20.222,49.186L8,69.256v-5.28   l12.222-17.368V49.186z M20.222,46.324L8,63.692v-5.671l12.222-14.319V46.324z M20.222,43.451L8,57.771V54.17l12.222-12.445V43.451   z M20.222,41.492L8,53.938v-4.113l12.222-10.349V41.492z M20.222,39.262L8,49.611v-3.285l12.222-8.684V39.262z M20.222,37.442   L8,46.125v-2.868l12.222-7.27V37.442z M20.222,35.797L8,43.067v-2.953l12.222-5.948V35.797z M20.222,33.986L8,39.934v-3.632   l12.222-4.277V33.986z M20.222,31.851L8,36.129V22.13l12.222,3.372V31.851z M27.175,72.792l-6.464,1.766v-8.552l6.464-19.933   V72.792z M27.175,45.544L20.71,65.478v-5.695l6.464-16.134V45.544z M27.175,43.21L20.71,59.345v-3.356l6.464-14.382V43.21z    M27.175,41.208L20.71,55.591v-3.445l6.464-12.323V41.208z M27.175,39.472L20.71,51.795v-3.099l6.464-10.615V39.472z    M27.175,37.768L20.71,48.383v-2.47l6.464-9.186V37.768z M27.175,36.443l-6.464,9.186v-2.5l6.464-7.574V36.443z M27.175,35.305   l-6.464,7.573v-1.651l6.464-6.582V35.305z M27.175,34.413l-6.464,6.582v-1.933l6.464-5.474V34.413z M27.175,33.374l-6.464,5.474   v-1.553l6.464-4.593V33.374z M27.175,32.501l-6.464,4.593v-1.398l6.464-3.845V32.501z M27.175,31.662l-6.464,3.845v-1.578   l6.464-3.146V31.662z M27.175,30.602l-6.464,3.146v-1.896l6.464-2.262V30.602z M27.175,29.418L20.71,31.68v-6.043l6.464,1.783   V29.418z M29.048,39.766l-1.385,4.271v-1.609l1.385-3.457V39.766z M29.048,38.533l-1.385,3.457v-1.472l1.385-3.082V38.533z    M29.048,37.039l-1.385,3.082v-1.23l1.385-2.641V37.039z M29.048,35.899l-1.385,2.641v-1.262l1.385-2.274V35.899z M29.048,34.69   l-1.385,2.274v-0.933l1.385-1.968V34.69z M29.048,33.781l-1.385,1.968v-0.766l1.385-1.623V33.781z M29.048,33.11l-1.385,1.623   v-0.585l1.385-1.41V33.11z M29.048,32.505l-1.385,1.41v-0.742L29.048,32V32.505z M29.048,31.787l-1.385,1.173v-0.606l1.385-0.984   V31.787z M29.048,31.17l-1.385,0.984v-0.594l1.385-0.824V31.17z M29.048,30.547l-1.385,0.824v-0.826l1.385-0.674V30.547z    M29.048,29.69l-1.385,0.674v-0.945l1.385-0.484V29.69z M29.048,28.762l-1.385,0.485v-1.692l1.385,0.382V28.762z M42.384,25.649   h-0.489v-9.182l0.489,0.866V25.649z M43.362,25.649h-0.489v-7.451l0.489,0.865V25.649z M44.34,20.814v4.834h-0.489v-5.72l0.5,0.885   H44.34z M45.317,22.552v3.097h-0.489V21.66l0.504,0.892H45.317z M46.458,25.649h-0.652v-2.257l0.652,1.154V25.649z M53.085,25.649   h-0.652v-1.145l0.652-1.154V25.649z M54.062,68.029l-0.488-0.133V42.775c0.157-0.284,0.32-0.56,0.488-0.826V68.029z M54.062,25.649   h-0.488v-3.165l0.488-0.865V25.649z M55.04,68.297l-0.488-0.134V41.215c0.164-0.233,0.327-0.454,0.488-0.663V68.297z M55.04,25.649   h-0.488v-4.896l0.488-0.866V25.649z M56.019,68.563l-0.489-0.133v-28.48c0.172-0.201,0.335-0.38,0.489-0.538V68.563z    M56.019,25.649h-0.489v-6.626l0.489-0.866V25.649z M56.996,68.831l-0.489-0.134V38.955c0.209-0.172,0.371-0.269,0.462-0.269   c0.008,0,0.019,0.003,0.027,0.004V68.831z M56.996,25.649h-0.489v-8.358l0.489-0.866V25.649z M58.19,69.157l-0.706-0.193V38.959   c0.203,0.158,0.443,0.38,0.706,0.658V69.157z M59.386,69.483l-0.706-0.192V40.168c0.23,0.275,0.469,0.583,0.706,0.916V69.483z    M60.799,69.869l-0.924-0.252v-27.81c0.33,0.518,0.646,1.08,0.924,1.669V69.869z M71.228,44.864l-1.576-4.861l-0.001-0.766   l1.577,3.938V44.864z M71.228,42.737l-1.578-3.94l-0.002-1.084l1.58,3.516V42.737z M71.228,40.831l-1.581-3.517l-0.001-0.772   l1.582,3.016V40.831z M71.228,39.207l-1.583-3.018l-0.001-0.882l1.584,2.602V39.207z M71.228,37.596l-1.585-2.603l-0.001-0.614   l1.586,2.254V37.596z M71.228,36.35l-1.586-2.254l-0.001-0.405l1.587,1.859V36.35z M71.228,35.299l-1.587-1.86l-0.001-0.363   l1.588,1.617V35.299z M71.228,34.461l-1.588-1.618l-0.001-0.493l1.589,1.346V34.461z M71.228,33.482l-1.59-1.346l-0.001-0.408   l1.591,1.13V33.482z M71.228,32.658l-1.591-1.13v-0.426l1.591,0.947V32.658z M71.228,31.859l-1.592-0.947l-0.001-0.669l1.593,0.775   V31.859z M71.228,30.838l-1.593-0.775l-0.002-0.747l1.595,0.558V30.838z M71.228,29.702l-1.595-0.558l-0.002-0.937l1.597-0.441   V29.702z M78.181,74.617l-6.464-1.766V46.899l6.464,19.934V74.617z M78.181,66.305l-6.464-19.934v-1.976l6.464,16.134V66.305z    M78.181,60.092l-6.464-16.135v-1.641l6.464,14.382V60.092z M78.181,56.301l-6.464-14.382v-1.429l6.464,12.323V56.301z    M78.181,52.462l-6.464-12.323v-1.427l6.464,10.615V52.462z M78.181,49.014l-6.464-10.615v-1.071l6.464,9.186V49.014z    M78.181,46.23l-6.464-9.186v-0.922l6.464,7.573V46.23z M78.181,43.445l-6.464-7.573v-0.681l6.464,6.582V43.445z M78.181,41.541   l-6.464-6.582V34.11l6.464,5.474V41.541z M78.181,39.37l-6.464-5.474v-0.691l6.464,4.593V39.37z M78.181,37.599l-6.464-4.593V32.34   l6.464,3.845V37.599z M78.181,35.995l-6.464-3.845v-0.893l6.464,3.146V35.995z M78.181,34.222l-6.464-3.146v-1.03l6.464,2.262   V34.222z M78.181,32.135l-6.464-2.263v-2.242l6.464-1.783V32.135z M78.67,74.75v-6.409l2.28,7.032L78.67,74.75z M81.138,75.425   l-2.468-7.612V61.75l5.848,14.598L81.138,75.425z M87.36,77.124l-2.646-0.723L78.67,61.312v-3.526L87.36,77.124z M90.892,76.694   l-12.222-23.3V50.13L90.892,70.2V76.694z M90.892,69.887L78.67,49.816v-2.608l12.222,17.368V69.887z M90.892,64.293L78.67,46.925   v-2.656l12.222,14.319V64.293z M90.892,58.337L78.67,44.018v-1.747l12.222,12.445V58.337z M90.892,54.483L78.67,42.039v-2.041   l12.222,10.35V54.483z M90.892,50.134L78.67,39.784v-1.639l12.222,8.684V50.134z M90.892,46.63L78.67,37.946v-1.47l12.222,7.27   V46.63z M90.892,43.556l-12.222-7.27v-1.645l12.222,5.948V43.556z M90.892,40.407L78.67,34.459v-1.98l12.222,4.277V40.407z    M90.892,36.584L78.67,32.306v-6.593l12.222-3.372V36.584z"/>
	<polygon points="32.688,71.307 32.688,76.712 35.567,74.956 35.567,70.526  "/>
</g>
</svg>