<?xml version="1.0" encoding="utf-8"?>
<!-- Generator: Adobe Illustrator 16.0.0, SVG Export Plug-In . SVG Version: 6.00 Build 0)  -->
<!DOCTYPE svg PUBLIC "-//W3C//DTD SVG 1.1//EN" "http://www.w3.org/Graphics/SVG/1.1/DTD/svg11.dtd">
<svg version="1.1"
	 id="World_Map" xmlns:dc="http://purl.org/dc/elements/1.1/" xmlns:cc="http://creativecommons.org/ns#" xmlns:rdf="http://www.w3.org/1999/02/22-rdf-syntax-ns#" xmlns:svg="http://www.w3.org/2000/svg" xmlns:sodipodi="http://sodipodi.sourceforge.net/DTD/sodipodi-0.dtd" xmlns:inkscape="http://www.inkscape.org/namespaces/inkscape" sodipodi:docname="michigan.svg" inkscape:version="0.48.2 r9819"
	 xmlns="http://www.w3.org/2000/svg" xmlns:xlink="http://www.w3.org/1999/xlink" x="0px" y="0px" width="60.97px" height="60px"
	 viewBox="1.016 0 97.97 100" enable-background="new 1.016 0 97.97 100" xml:space="preserve">
<path fill-opacity="0.9961" d="M46.645,29.663c0.455,0.068,0.826,0.196,0.826,0.285c0,0.088-0.261,0.581-0.579,1.093
	c-0.558,0.897-0.568,0.95-0.273,1.399c0.168,0.257,0.379,0.467,0.468,0.467s0.366-0.346,0.616-0.769
	c0.252-0.427,0.933-1.105,1.53-1.525c0.713-0.501,1.222-1.038,1.508-1.589c0.592-1.141,1.188-1.617,2.223-1.772
	c0.794-0.119,1.183-0.061,2.874,0.427c0.211,0.061,0.324-0.008,0.324-0.197c0-0.352,1.052-0.675,2.207-0.676
	c0.764-0.001,0.889-0.076,1.849-1.111c1.212-1.308,1.37-1.335,3.7-0.631c1.804,0.544,2.768,1.057,4.01,2.132
	c1.123,0.972,2.256,1.684,2.531,1.592c0.119-0.04,0.342-0.639,0.494-1.332c0.355-1.606,0.645-1.817,1.712-1.251
	c0.642,0.339,1.091,0.417,2.45,0.424c0.914,0.005,2.562,0.114,3.662,0.243c1.099,0.129,2.039,0.168,2.088,0.087
	c0.15-0.243-0.24-0.807-0.912-1.32c-0.429-0.327-0.674-0.695-0.757-1.138c-0.14-0.743-0.821-1.209-1.767-1.209
	c-0.699,0-0.891-0.396-0.486-1.012c0.164-0.25,0.298-0.609,0.298-0.799c0-0.487-1.24-3.589-1.499-3.749
	c-0.301-0.186-1.211,0.105-2.041,0.655c-0.863,0.571-0.966,0.575-1.314,0.05c-0.248-0.375-0.439-0.419-1.918-0.45
	c-0.902-0.019-2.057-0.102-2.565-0.185l-0.925-0.151l0.064-1.28c0.059-1.154,0.344-2.608,0.682-3.481
	c0.098-0.252,0.029-0.323-0.311-0.322c-0.979,0.003-2.937,0.421-4.504,0.962c-1.56,0.538-1.89,0.582-5.27,0.701
	c-3.033,0.107-3.797,0.193-4.808,0.542c-1.937,0.667-3.236,1.456-4.485,2.724l-1.17,1.188l-0.727-0.493
	c-0.641-0.435-0.794-0.468-1.299-0.286c-0.827,0.299-0.984,0.268-1.668-0.333c-0.608-0.534-0.636-0.539-2.336-0.44
	c-2.027,0.118-3.025-0.103-3.697-0.819c-0.264-0.281-0.978-1.385-1.586-2.453c-1.236-2.167-1.969-2.866-3.688-3.517
	c-0.88-0.333-1.303-0.386-2.391-0.297c-1.038,0.084-1.37,0.049-1.548-0.166c-0.125-0.15-0.282-0.273-0.35-0.273
	c-0.067,0-0.686,0.499-1.373,1.109c-0.688,0.61-1.326,1.109-1.419,1.109c-0.432,0-0.559-0.744-0.312-1.816
	c0.691-2.991,4.392-7.036,7.591-8.298c1.4-0.552,1.62-0.816,1.129-1.357C33.231,0.056,32.937-0.005,31.771,0
	c-1.836,0.008-4.061,0.414-5.14,0.936c-0.475,0.23-1.451,0.971-2.169,1.647c-0.718,0.676-2.157,1.869-3.197,2.651
	c-1.04,0.782-1.986,1.608-2.103,1.835c-0.419,0.814-0.957,1.23-1.74,1.347c-0.549,0.083-1.081,0.365-1.778,0.944
	c-1.673,1.391-2.567,1.72-5.67,2.091c-1.639,0.195-1.875,0.318-4.105,2.135c-0.585,0.476-1.776,1.147-2.811,1.584
	c-2.32,0.979-2.479,1.166-1.395,1.631c1.063,0.456,1.523,0.948,2.208,2.368c0.63,1.304,0.39,1.183,4.676,2.372
	c5.202,1.443,8.006,2.376,9.706,3.229c0.976,0.49,2.146,0.986,2.599,1.103c0.453,0.116,0.948,0.263,1.101,0.326
	c0.152,0.063,0.818,0.123,1.479,0.132c1.327,0.019,4.779,1.005,5.547,1.584c0.424,0.319,0.431,0.364,0.187,1.105
	c-0.303,0.917-0.303,0.917,1.478,1.507c0.661,0.219,1.418,0.55,1.682,0.735c0.461,0.323,0.48,0.405,0.462,2.054
	c-0.014,1.374-0.107,1.929-0.464,2.772c-0.37,0.874-0.405,1.103-0.208,1.34c0.276,0.333,1.159,0.376,1.704,0.084
	c0.268-0.143,0.435-0.145,0.575-0.004c0.2,0.2,0.1,0.659-0.434,1.977c-0.291,0.72-0.13,1.366,0.495,1.992
	c0.601,0.601,0.922,0.623,1.062,0.075c0.059-0.229,0.688-1.348,1.4-2.486c0.711-1.139,1.723-2.928,2.248-3.976
	c1.1-2.197,2.028-3.218,3.081-3.387c0.382-0.062,0.861-0.145,1.064-0.186s0.852-0.502,1.439-1.026
	C45.785,29.569,45.845,29.543,46.645,29.663z"/>
<path fill-opacity="0.9961" d="M98.619,76.607c-0.259-1.203-0.769-4.102-1.133-6.44c-0.984-6.315-1.605-8.229-3.029-9.313
	c-1.047-0.799-1.973-0.687-4.383,0.53L88.059,62.4l-0.586,1.224c-0.424,0.888-1.034,1.677-2.224,2.88L83.61,68.16l-1.544-0.846
	l-1.545-0.845l0.121-1.567c0.166-2.155,0.492-2.754,1.775-3.256c1.384-0.539,2.078-1.263,2.486-2.592
	c0.503-1.638,0.966-2.352,1.936-2.986l0.877-0.574l0.328-2.568c0.189-1.479,0.301-3.318,0.264-4.34
	c-0.061-1.658-0.103-1.819-0.637-2.485c-0.789-0.985-1-1.427-1-2.095c0-0.565,0.447-1.16,1.189-1.581
	c0.312-0.178,0.289-0.281-0.359-1.571c-1.082-2.152-1.656-2.893-2.447-3.151c-0.382-0.125-0.862-0.337-1.067-0.47
	s-0.717-0.364-1.138-0.512c-0.42-0.148-1.085-0.479-1.477-0.734c-0.391-0.255-1.044-0.519-1.451-0.585
	c-1.235-0.203-1.379-0.278-1.688-0.888c-0.397-0.79-1.168-1.601-1.732-1.827c-0.255-0.102-0.982-0.252-1.617-0.333
	c-0.877-0.113-1.497-0.353-2.582-0.999c-1.082-0.644-1.61-0.848-2.175-0.842c-0.956,0.011-2.172,0.44-2.409,0.851
	c-0.102,0.175-0.518,0.689-0.925,1.142c-0.672,0.748-0.739,0.914-0.729,1.806c0.01,1.07,0.311,1.562,1.249,2.047
	c0.934,0.483,0.569,0.819-1.462,1.347c-2.043,0.531-2.779,0.913-3.029,1.571c-0.09,0.237-0.25,1.502-0.355,2.81
	c-0.371,4.58-1.562,6.858-2.779,5.312c-0.518-0.659-0.494-1.631,0.107-4.34c0.269-1.214,0.438-2.259,0.373-2.322
	c-0.188-0.189-0.635,0.285-1.52,1.616c-1.018,1.532-1.615,2.051-3.334,2.902l-1.325,0.655l-0.116,1.108
	c-0.131,1.258-0.279,1.495-1.235,1.983l-0.683,0.348l-0.079,2.657c-0.079,2.614-0.091,2.681-0.774,4.122
	c-0.383,0.807-1.078,2.082-1.545,2.834l-0.851,1.367l0.322,0.852c0.177,0.468,0.369,1.49,0.425,2.271
	c0.094,1.3,0.062,1.489-0.385,2.252c-0.83,1.415-0.776,1.681,1.745,8.625l0.973,2.681l0.082,3.508
	c0.126,5.334-0.345,8.047-1.828,10.546c-0.423,0.712-1.081,1.962-1.463,2.778c-0.774,1.654-1.614,2.852-3.012,4.291l-0.939,0.967
	l12.439,0.05c11.112,0.044,12.463,0.081,12.656,0.344c0.119,0.161,0.342,0.342,0.494,0.401c0.824,0.32,15.004-0.142,15.721-0.512
	c0.459-0.238,1.979-2.221,3.141-4.099c0.361-0.583,0.687-1.454,0.835-2.235c0.368-1.932,0.677-2.509,1.782-3.329
	c1.377-1.022,1.557-1.27,1.896-2.614c0.165-0.65,0.527-1.607,0.805-2.126c0.436-0.812,0.592-0.95,1.127-1.002
	c0.443-0.042,0.723,0.05,0.978,0.323c0.419,0.449,0.38,0.442,0.976,0.171c0.531-0.242,0.752-0.812,1.027-2.653
	c0.105-0.713,0.281-1.684,0.391-2.158C99.06,78.929,99.018,78.456,98.619,76.607z"/>
</svg>
