<svg xmlns="http://www.w3.org/2000/svg" xmlns:xlink="http://www.w3.org/1999/xlink" version="1.1" id="Layer_1" x="0px" y="0px" viewBox="0 0 100 100" enable-background="new 0 0 100 100" xml:space="preserve" height="50px" width="50px">
<path d="M72.9,16.2H27.1L5,36.9l45,46.9l45-46.9L72.9,16.2z M70.3,38.1L50,78.2L29.7,38.1H70.3z M31,35.9l19-16.1l19,16.1H31z   M53,19.5h17.9v15.1L53,19.5z M29,34.7V19.5h18L29,34.7z M27.3,38.1l18.4,36.5l-35-36.5H27.3z M72.7,38.1h16.5l-35,36.5L72.7,38.1z   M73.1,35.9v-15l16,15H73.1z M26.8,35.9H10.9L26.8,21V35.9z"/>
</svg>